#!OML:ASF F:\VICON\USERDATA\INSTALL\rory3\rory3.ASF
:FULLY-SPECIFIED
:DEGREES
20
root 0.6779120000000003 17.796 -17.53170000000008 -0.1734220000000004 -5.614930000000008 -8.952609999999998
lfemur -27.550700000000038 -4.449570000000002 -7.481850000000001
ltibia 18.63779999999999
lfoot -6.946210000000001 12.706099999999989
ltoes -1.4781000000000026
rfemur 4.743829999999987 7.141490000000005 36.3199
rtibia 23.580600000000004
rfoot -20.249200000000023 -7.327419999999998
rtoes -0.49961699999999754
lowerback 1.0 2.2337200000000017 8.516900000000005
upperback 0.16145399999999965 4.0198200000000055 2.7820399999999985
thorax -4.68121 1.8189500000000018 -2.374450000000002
lowerneck -16.3494 -2.92751 -1.7593300000000005
upperneck 21.1181 -3.73881 0.5453659999999992
head 9.40446 -1.82146 0.001451759999999802
lclavicle -3.0209100000000034e-14 5.565970000000008e-15
lhumerus -36.3668 3.9218299999999973 83.3196
lradius 24.2779
lwrist 3.653770000000002
lhand -26.052600000000005 22.4265
lfingers 7.12502
lthumb 0.4949869999999986 52.4057
rclavicle -3.0209100000000034e-14 5.565970000000008e-15
rhumerus -21.729500000000005 -5.841049999999987 -82.8655
rradius 30.765899999999995
rwrist -1.0788700000000109
rhand -19.9755 1.0
rfingers 7.12502
rthumb 6.363440000000001 -6.667909999999998
21
root 0.3790298059715375 17.90607638042308 14.508429721756357 -2.319481532567495 -6.388256999616482 -0.8811758853174243
lfemur -14.997144363185136 -2.6067305966325307 -21.891059539760807
ltibia 13.092181952582916
lfoot -1.0744246089397844 -3.4382208257608746
ltoes -13.711382997270329
rfemur -4.971538829325104 6.087429928256471 27.33384827387004
rtibia 35.253400757190626
rfoot -10.038237483639458 -8.682286836754653
rtoes -3.00357636778449
lowerback 1.0 2.3462648338382004 0.2863670612985325
upperback 0.4036129758796455 2.972353485653489 0.4215786740392462
thorax -4.4769630293252005 1.5083618519902542 -1.2517090980923236
lowerneck -16.52369059506451 -3.055397690118206 -1.4101868834341027
upperneck 21.672018586920206 -3.993716583140991 0.7658106724987108
head 9.921887493288201 -1.889104124900073 0.008653151519666918
lclavicle -1.0181375386196864e-15 -3.8157874736326103e-16
lhumerus -35.61329480147793 4.025342194865695 83.25223089328111
lradius 25.30767695006756
lwrist 5.542141901893613
lhand -26.738110980618625 24.82919641329116
lfingers nan
lthumb -0.14413129319916818 54.871396750555384
rclavicle -1.0916136413565717e-15 -4.3770256204958116e-16
rhumerus -25.006398267473152 -15.076438183289193 -80.77410579962482
rradius 28.642992061550547
rwrist 9.833181593027199
rhand -18.186582775756076 1.0
rfingers nan
rthumb 8.123886604198642 -7.007305130665548
22
root 0.2501766193479973 17.94075656081768 11.20336381028397 -2.065185624537403 -5.631994935595374 -0.4242050392080996
lfemur -8.952368825857357 -2.280176408876276 -22.506237306043793
ltibia 9.53942098461587
lfoot 0.3304629215078272 -8.05401783810318
ltoes -8.795745510349521
rfemur -9.532273774755048 4.581995782175958 25.29779378906873
rtibia 46.116506254117624
rfoot -2.750779686958383 -5.271995411244594
rtoes -0.16514653740725915
lowerback 1.0 1.9654447511196684 0.4822780929681665
upperback 0.5904574016050884 2.4677114044065864 0.2752377712336054
thorax -4.584212662383641 1.274485906214839 -0.6273253227961328
lowerneck -16.59013427124687 -3.1760955757583336 -1.3585845737254538
upperneck 21.465508005128807 -4.187340002788378 1.030619590658505
head 9.806150950038067 -1.9573322950908973 0.06845044470203962
lclavicle -1.0441995638553452e-15 -3.9915499580762473e-16
lhumerus -34.76812551325191 3.6551109173619825 83.29959537289444
lradius 26.450845119435357
lwrist 5.7918502742723454
lhand -26.98490377978541 25.21816871494091
lfingers nan
lthumb -0.42406760136581323 55.22115983415423
rclavicle -1.109899745286763e-15 -4.497916893370712e-16
rhumerus -25.726998120553226 -16.465713375073726 -81.09796674984685
rradius 27.983353926937532
rwrist 10.084479419798258
rhand -18.133062321173927 1.0
rfingers nan
rthumb 8.344897633503388 -7.62113778071488
23
root 0.1725214214858304 17.958844184885887 8.240850579281735 -1.844636611504055 -5.762664832621679 -0.16139143149214386
lfemur -3.955276810565472 -2.603738153671367 -23.381034929562624
ltibia 7.309406131247975
lfoot -2.459259866333506 -13.994941264540376
ltoes -3.173466538451342
rfemur -13.159629934696595 3.647835765557841 23.64619074156041
rtibia 52.43802802868647
rfoot 0.7080855245128408 -6.933514560442104
rtoes 4.2440477988543845
lowerback 1.0 1.693530694302393 0.2821159696553588
upperback 0.638321905718993 2.1454395193640807 0.36414791185565254
thorax -4.737118796873928 1.1502539907862672 -0.24480536231935512
lowerneck -16.614829647836576 -3.205234018482148 -1.3963834711461218
upperneck 21.303569961655914 -4.223082583027239 1.1759500656672361
head 9.616035395316173 -1.9746061531172843 0.1455345343768918
lclavicle -1.0545358408744607e-15 -4.05443070534433e-16
lhumerus -33.673398305743234 2.1027043719423526 83.46368570208242
lradius 27.577634726989704
lwrist 5.3726642605310175
lhand -27.336390782364106 24.998731106390917
lfingers nan
lthumb -0.6677782725282317 55.16625672978459
rclavicle -1.1277474107014213e-15 -4.627527599879696e-16
rhumerus -26.35191598954693 -17.314326748718333 -81.81764805645454
rradius 27.499401957564462
rwrist 6.0590018974530215
rhand -18.016792242811597 1.0
rfingers nan
rthumb 8.440131180895822 -8.00823205819114
24
root 0.11995288639444518 17.96755763781638 6.78194669943562 -1.8194455174660478 -5.805780040889694 0.35049444574864763
lfemur 0.11379721127580567 -3.2731283173070405 -24.587636125331773
ltibia 6.658412684977005
lfoot -5.8593163647434885 -11.029032260478385
ltoes -3.6056939724616663
rfemur -16.66907369567618 3.1710816787443146 22.249672146682705
rtibia 56.40508617511409
rfoot -1.2782307657432064 -9.398286844667304
rtoes 7.304964215274281
lowerback 1.0 1.3705571457895904 -0.2392062602599201
upperback 0.6228540080070064 1.7505525899492813 0.291697137906501
thorax -4.924374158375668 0.9826484779018847 0.37212762667135924
lowerneck -16.428354971014574 -3.182556004542212 -1.4133795051492895
upperneck 21.15546396048001 -4.176857631312589 1.2236919017331072
head 9.576949233046646 -1.958240014024624 0.18669651808686705
lclavicle -1.0444153669609727e-15 -3.949585732726539e-16
lhumerus -31.866482007557952 0.2503675989701539 83.54219178572248
lradius 27.99562705082666
lwrist 4.896000337788058
lhand -27.67110464228613 24.8852965439354
lfingers nan
lthumb -0.9454635310226172 54.98552079600247
rclavicle -1.1250192010608294e-15 -4.587948783855501e-16
rhumerus -27.044197023989685 -18.084305454752236 -82.41924671653486
rradius 26.53676070768583
rwrist 6.525872986671444
rhand -18.09270361266187 1.0
rfingers nan
rthumb 8.40110075456839 -8.362359198105123
25
root 0.09710960057377965 17.976909774328817 6.053563818218183 -1.6887433387126571 -5.708448953579708 0.67949435106422
lfemur 3.8950748288787675 -3.7457367656635854 -25.1717140765097
ltibia 6.776093892019077
lfoot -6.444491383239786 -7.609595882760725
ltoes -1.6815538419919964
rfemur -19.401487854550695 2.8893654771948345 21.32128822797193
rtibia 58.18787028426512
rfoot -3.2287600860948444 -6.517915766228481
rtoes 8.188985096859298
lowerback 1.0 1.2582397913737986 -0.5309534375666192
upperback 0.5754337261756077 1.3781248589199941 0.23598094416103654
thorax -5.031536320938469 0.803030889223546 0.5497078063068671
lowerneck -16.44658548639125 -3.1720867073851675 -1.312123529763733
upperneck 21.37634673773927 -4.209028468781228 1.0931673725147555
head 9.631564873732298 -1.9788810083343988 0.10517398177136472
lclavicle -1.0494645554280922e-15 -3.963011686446107e-16
lhumerus -29.83371669401572 -1.7071862313409636 83.70080275163073
lradius 28.590256296554745
lwrist 4.975880529548037
lhand -27.896497483978028 24.78442813240878
lfingers nan
lthumb -0.9830439623210212 55.07312110636876
rclavicle -1.1267382406470738e-15 -4.580972891051192e-16
rhumerus -27.7523817119696 -18.69258042417868 -82.74145414265887
rradius 25.73958258628912
rwrist 4.882566147929001
rhand -18.08945637548516 1.0
rfingers nan
rthumb 8.362533594788971 -8.722639059861994
